<?xml version="1.0" encoding="UTF-8"?>
<svg xmlns="http://www.w3.org/2000/svg" xmlns:xlink="http://www.w3.org/1999/xlink" width="202pt" height="46pt" viewBox="0 0 202 46" version="1.1">
<g id="surface1">
<path style=" stroke:none;fill-rule:evenodd;fill:rgb(7.843137%,23.529412%,39.215686%);fill-opacity:1;" d="M 25.503906 22.285156 L 25.503906 33.617188 L 27.941406 33.617188 L 27.941406 28.734375 C 27.941406 23.300781 27.960938 23.101562 28.488281 22.03125 C 30.101562 18.761719 35.050781 18.59375 36.53125 21.761719 C 37.015625 22.796875 37.03125 22.976562 37.03125 28.542969 L 37.03125 33.621094 L 39.515625 33.574219 L 39.511719 28.097656 C 39.507812 21.800781 39.503906 21.757812 38.75 20.226562 C 36.816406 16.300781 30.894531 16.132812 28.132812 19.925781 L 27.949219 20.179688 L 27.941406 10.953125 L 25.503906 10.953125 L 25.503906 22.285156 M 88.964844 11.707031 C 77.136719 13.867188 76.347656 30.480469 87.929688 33.441406 C 96.421875 35.613281 104.132812 28.585938 102.433594 20.226562 C 101.214844 14.253906 95.347656 10.542969 88.964844 11.707031 M 159.285156 11.59375 C 152.722656 12.546875 148.683594 18.171875 149.8125 24.78125 C 151.328125 33.671875 162.550781 37.097656 169.113281 30.679688 C 169.824219 29.984375 169.898438 30.199219 168.390625 28.613281 C 167.683594 27.867188 167.027344 27.167969 166.933594 27.0625 L 166.761719 26.875 L 166.179688 27.390625 C 161.335938 31.683594 154.90625 28.988281 154.910156 22.664062 C 154.914062 16.605469 160.8125 13.960938 165.800781 17.777344 C 166.234375 18.105469 166.59375 18.363281 166.605469 18.351562 C 166.613281 18.335938 167.21875 17.574219 167.945312 16.65625 C 168.671875 15.738281 169.285156 14.9375 169.308594 14.882812 C 169.449219 14.519531 166.855469 12.757812 165.378906 12.214844 C 163.972656 11.695312 160.808594 11.375 159.285156 11.59375 M 66.535156 12.046875 C 62.988281 12.683594 60.898438 14.863281 60.785156 18.039062 C 60.6875 20.796875 61.644531 22.460938 64.007812 23.652344 C 64.867188 24.085938 65.945312 24.433594 68.992188 25.269531 C 71.515625 25.957031 72.292969 26.519531 72.296875 27.65625 C 72.308594 30.464844 66.882812 30.292969 63.199219 27.371094 C 62.769531 27.03125 62.910156 26.921875 61.304688 28.847656 L 59.976562 30.4375 L 60.265625 30.683594 C 64.464844 34.199219 71.738281 34.632812 75.050781 31.5625 C 77.417969 29.363281 77.660156 25.332031 75.550781 23.105469 C 74.371094 21.863281 72.953125 21.222656 69.144531 20.21875 C 66.09375 19.414062 65.289062 18.777344 65.648438 17.441406 C 66.195312 15.410156 70.203125 15.605469 73.421875 17.816406 C 73.738281 18.035156 74.027344 18.183594 74.0625 18.144531 C 74.199219 17.984375 76.351562 14.8125 76.390625 14.710938 C 76.457031 14.535156 75.121094 13.632812 73.988281 13.097656 C 71.796875 12.054688 68.8125 11.632812 66.535156 12.046875 M 105.90625 18.851562 C 105.953125 27.457031 106.050781 28.183594 107.453125 30.308594 C 110.550781 34.988281 119.863281 35.027344 123.179688 30.375 C 124.757812 28.160156 124.902344 27.152344 124.902344 18.445312 L 124.902344 11.878906 L 119.851562 11.878906 L 119.851562 18.582031 C 119.851562 26.035156 119.855469 26.023438 119.292969 27.199219 C 117.808594 30.304688 112.855469 30.242188 111.355469 27.09375 C 110.800781 25.929688 110.816406 26.179688 110.785156 18.683594 L 110.757812 11.878906 L 105.867188 11.878906 L 105.90625 18.851562 M 129.28125 22.621094 L 129.28125 33.363281 L 134.078125 33.363281 L 134.078125 26.453125 L 137.703125 26.453125 L 139.984375 29.910156 L 142.261719 33.363281 L 145.082031 33.363281 C 147.328125 33.363281 147.882812 33.339844 147.816406 33.257812 C 147.773438 33.199219 146.738281 31.710938 145.523438 29.949219 C 144.304688 28.191406 143.148438 26.519531 142.949219 26.234375 L 142.582031 25.722656 L 143.445312 25.289062 C 145.972656 24.015625 147.085938 22.089844 147.078125 18.996094 C 147.070312 14.902344 144.742188 12.429688 140.457031 11.96875 C 139.976562 11.914062 137.488281 11.878906 134.460938 11.878906 L 129.28125 11.878906 L 129.28125 22.621094 M 172.792969 22.746094 L 172.792969 33.617188 L 189.375 33.617188 L 189.375 29.320312 L 177.59375 29.320312 L 177.59375 24.769531 L 187.691406 24.769531 L 187.691406 20.472656 L 177.59375 20.472656 L 177.59375 16.175781 L 189.207031 16.175781 L 189.207031 11.878906 L 172.792969 11.878906 L 172.792969 22.746094 M 14.476562 15.207031 L 14.476562 17.609375 L 12.289062 17.609375 L 12.289062 19.796875 L 14.476562 19.796875 L 14.476562 24.878906 C 14.476562 30.410156 14.492188 30.609375 14.941406 31.554688 C 15.953125 33.675781 18.882812 34.390625 21.667969 33.195312 L 22.050781 33.03125 L 22.050781 30.9375 L 21.296875 31.179688 C 19.324219 31.816406 17.808594 31.484375 17.210938 30.289062 L 16.960938 29.78125 L 16.933594 24.707031 L 16.910156 19.628906 L 22.050781 19.628906 L 22.050781 17.609375 L 16.917969 17.609375 L 16.917969 12.804688 L 14.476562 12.804688 L 14.476562 15.207031 M 93.132812 16.324219 C 99.527344 18.492188 98.925781 28.214844 92.324219 29.367188 C 87.351562 30.234375 83.414062 25.300781 85.089844 20.296875 C 86.210938 16.945312 89.773438 15.183594 93.132812 16.324219 M 139.839844 16.304688 C 141.46875 16.730469 142.199219 17.640625 142.199219 19.25 C 142.199219 20.304688 142.039062 20.742188 141.433594 21.347656 C 140.59375 22.1875 139.917969 22.324219 136.539062 22.324219 L 133.910156 22.328125 L 133.910156 16.175781 L 136.625 16.175781 C 138.796875 16.175781 139.445312 16.203125 139.839844 16.304688 M 49.699219 17.238281 C 42.675781 18.332031 40.421875 28.242188 46.25 32.394531 C 49.417969 34.652344 54.285156 34.148438 57.097656 31.269531 C 57.585938 30.769531 57.605469 30.835938 56.757812 30.089844 C 55.980469 29.40625 55.988281 29.410156 55.710938 29.707031 C 53.3125 32.273438 48.8125 32.296875 46.746094 29.757812 C 46.09375 28.957031 45.449219 27.429688 45.449219 26.6875 L 45.449219 26.453125 L 58.101562 26.453125 L 58.042969 25.296875 C 57.828125 21.035156 55.964844 18.316406 52.644531 17.425781 C 52.066406 17.269531 50.246094 17.15625 49.699219 17.238281 M 51.796875 19.460938 C 53.785156 19.96875 55.28125 21.847656 55.515625 24.117188 L 55.574219 24.683594 L 45.394531 24.683594 L 45.46875 24.125 C 45.910156 20.835938 48.8125 18.695312 51.796875 19.460938 "/>
</g>
</svg>
